<?xml version="1.0" standalone="no"?><!DOCTYPE svg PUBLIC "-//W3C//DTD SVG 1.1//EN" "http://www.w3.org/Graphics/SVG/1.1/DTD/svg11.dtd"><svg t="1753693069143" class="icon" viewBox="0 0 1024 1024" version="1.1" xmlns="http://www.w3.org/2000/svg" p-id="2335" xmlns:xlink="http://www.w3.org/1999/xlink" width="200" height="200"><path d="M854.095921 639.588111 854.095921 781.281071C854.095921 821.018176 822.458539 853.243738 783.427917 853.243738L217.579019 853.243738C178.548397 853.243738 146.911015 821.018176 146.911015 781.281071L146.911015 639.588111 43.428648 639.588111 43.428648 815.544753C43.428648 895.008576 113.545792 959.455546 191.607036 959.455546L821.673536 959.455546C899.735827 959.455546 963.014771 895.008576 963.014771 815.544753L963.014771 639.588111 854.095921 639.588111 854.095921 639.588111ZM608.731913 407.480309 607.629146 84.837209 394.373939 84.837209 394.373939 407.480309 256.413129 407.480309 501.549267 731.219341 746.686451 406.353216 608.731913 407.480309Z" fill="red" p-id="2336"></path></svg>