<?xml version="1.0" standalone="no"?><!DOCTYPE svg PUBLIC "-//W3C//DTD SVG 1.1//EN" "http://www.w3.org/Graphics/SVG/1.1/DTD/svg11.dtd"><svg t="1752892568284" class="icon" viewBox="0 0 1489 1024" version="1.1" xmlns="http://www.w3.org/2000/svg" p-id="1474" xmlns:xlink="http://www.w3.org/1999/xlink" width="290.8203125" height="200"><path d="M744.727273 0C212.712727 0 0 512 0 512S212.712727 1024 744.727273 1024s744.727273-512 744.727272-512S1276.462545 0 744.727273 0z m0 819.013818c-176.314182 0-319.301818-137.495273-319.301818-307.2 0-169.704727 142.987636-307.2 319.301818-307.2 176.314182 0 319.301818 137.495273 319.301818 307.2-0.279273 169.890909-143.173818 307.2-319.301818 307.2zM904.285091 512c0 84.805818-71.68 153.6-159.557818 153.6-87.970909 0-159.744-68.887273-159.744-153.6 0-84.805818 71.68-153.6 159.557818-153.6 88.343273-0.093091 159.744 68.794182 159.744 153.6z" fill="#0091FF" p-id="1475"></path></svg>