<?xml version="1.0" standalone="no"?><!DOCTYPE svg PUBLIC "-//W3C//DTD SVG 1.1//EN" "http://www.w3.org/Graphics/SVG/1.1/DTD/svg11.dtd">
<svg t="1753157949903" class="icon" viewBox="0 0 1024 1024" version="1.1" xmlns="http://www.w3.org/2000/svg" p-id="19521" xmlns:xlink="http://www.w3.org/1999/xlink" width="200" height="200">
    <path d="M509.952 509.952c-65.536 0-120.832 53.248-120.832 118.784 0 36.864 18.432 71.68 47.104 94.208v120.832c0 16.384 12.288 28.672 28.672 28.672H552.96c16.384 0 28.672-12.288 28.672-28.672v-120.832c30.72-22.528 47.104-57.344 47.104-94.208 2.048-65.536-53.248-118.784-118.784-118.784z m43.008 180.224c-12.288 6.144-18.432 18.432-18.432 30.72v110.592h-49.152v-110.592c0-12.288-6.144-24.576-18.432-30.72-24.576-12.288-32.768-36.864-32.768-63.488 0-40.96 32.768-73.728 75.776-73.728 40.96 0 75.776 32.768 75.776 73.728 0 24.576-8.192 49.152-32.768 63.488z m247.808-323.584H266.24v-75.776C266.24 163.84 378.88 57.344 507.904 57.344c126.976 0 241.664 106.496 245.76 231.424h49.152C798.72 131.072 667.648 4.096 509.952 4.096c-159.744 0-290.816 126.976-292.864 284.672V368.64c-73.728 6.144-151.552 65.536-151.552 141.312V880.64c0 77.824 83.968 141.312 161.792 141.312h567.296c77.824 0 161.792-63.488 161.792-141.312V507.904c0-75.776-79.872-137.216-155.648-141.312z m-6.144 606.208H229.376c-47.104 0-116.736-47.104-116.736-94.208V507.904c0-47.104 59.392-98.304 104.448-98.304h567.296c47.104 0 129.024 51.2 129.024 98.304v370.688c0 47.104-71.68 94.208-118.784 94.208z" fill="red" p-id="19522"></path></svg>