<svg fill="red" class="icon" viewBox="0 0 1024 1024" version="1.1" xmlns="http://www.w3.org/2000/svg" p-id="3456" width="200" height="200">
    <path d="M951.852 709.895l-208.194 193.39-67.028-67.116-39.468 39.439 105.033 105.12 247.633-229.902zM472.474 891.29v-0.41c-212.67 0-385.697-172.997-385.697-385.668 0.029-212.64 173.026-385.667 385.697-385.667 212.699 0 385.697 173.026 385.697 385.697h0.41a28.73 28.73 0 1 0 57.519 0h0.41c0-244.824-199.213-444.036-444.036-444.036S28.467 260.389 28.467 505.242 227.68 949.248 472.503 949.248v-0.41a28.73 28.73 0 1 0-0.03-57.548z" p-id="3457"></path><path d="M779.352 703.283v-142.92c0-0.498-0.264-0.908-0.293-1.405 0.059-0.82 0.293-1.61 0.293-2.429 0-56.934-103.015-82.885-198.685-82.885-2.458 0-4.916 0.088-7.373 0.117V337.92c0-55.735-98.217-81.13-189.499-81.13-91.253 0-189.44 25.395-189.44 81.13v292.893c0 55.53 97.602 80.926 188.621 81.072 10.357 48.333 107.198 70.48 197.661 70.48 95.7 0 198.715-24.722 198.715-79.082z m-43.652-0.585c-3.277 9.918-55.881 35.957-155.033 35.957-99.124 0-151.757-26.068-154.946-35.372v-18.051c38.882 18.46 98.128 27.267 154.946 27.267 56.846 0 116.15-8.806 155.033-27.297v17.496z m-351.905-283.59c53.219 0 108.69-8.718 145.76-26.975v21.504c-0.469 9.626-51.288 37.45-145.76 37.45-94.383 0-145.232-27.824-145.7-37.45v-21.474c37.098 18.227 92.51 26.946 145.7 26.946z m0 75.689c27.18 0 54.945-2.312 80.574-6.934-29.696 8.192-54.184 20.041-68.52 35.781l-12.054-0.175c-94.53 0-145.29-27.824-145.7-37.42V467.88c37.098 18.198 92.51 26.917 145.7 26.917zM735.671 632.89c-3.394 9.918-56.028 35.898-155.004 35.898-99.036 0-151.728-26.039-154.946-35.313V610.86c38.882 19.339 98.128 28.584 154.946 28.584 56.846 0 116.121-9.216 155.004-28.613v22.06zM381.952 567.15v28.701c-92.833-0.41-143.272-27.824-143.857-37.361v-18.257c36.688 18.052 91.282 26.741 143.857 26.917z m198.715 28.584c-101.23 0-154.8-29.14-154.946-39.205 0.087-9.742 55.179-39.175 154.946-39.175 99.796 0 154.887 29.433 154.975 39.175-0.176 10.065-53.746 39.205-154.975 39.205z m-86.894-114.6a208.984 208.984 0 0 0 35.81-13.312v8.367a453.193 453.193 0 0 0-35.81 4.945zM383.795 375.369c-94.471 0-145.262-27.823-145.7-37.42 0.585-9.625 51.61-37.449 145.7-37.449 94.179 0 145.203 27.824 145.76 37.42-0.41 9.626-51.2 37.45-145.76 37.45z m-1.843 264.163v28.643c-93.125-0.41-143.39-27.824-143.857-37.362v-18.198c36.659 18.052 91.223 26.741 143.857 26.917z" p-id="3458"></path>
</svg>