<?xml version="1.0" standalone="no"?><!DOCTYPE svg PUBLIC "-//W3C//DTD SVG 1.1//EN" "http://www.w3.org/Graphics/SVG/1.1/DTD/svg11.dtd"><svg t="1758760375737" class="icon" viewBox="0 0 1024 1024" version="1.1" xmlns="http://www.w3.org/2000/svg" p-id="16653" xmlns:xlink="http://www.w3.org/1999/xlink" width="200" height="200"><path d="M828 451.2l-360-208A24 24 0 0 0 432 264v152L132 243.36A24 24 0 0 0 96 264v416a24 24 0 0 0 36 20.8L432 527.44V680a24 24 0 0 0 36 20.8l360-208a24 24 0 0 0 0-41.6zM872 224a24 24 0 0 0-24 24v440a24 24 0 0 0 48 0V248a24 24 0 0 0-24-24z" p-id="16654" fill="#fc200c"></path></svg>