<?xml version="1.0" standalone="no"?><!DOCTYPE svg PUBLIC "-//W3C//DTD SVG 1.1//EN" "http://www.w3.org/Graphics/SVG/1.1/DTD/svg11.dtd"><svg t="1768811136184" class="icon" viewBox="0 0 1144 1024" version="1.1" xmlns="http://www.w3.org/2000/svg" p-id="13320" xmlns:xlink="http://www.w3.org/1999/xlink" width="223.4375" height="200"><path d="M534.196706 896.030118c-16.956235-14.516706-35.870118-30.418824-55.235765-46.290824-127.698824-104.658824-159.292235-113.423059-180.705882-113.423059-0.421647 0-0.813176 0.120471-1.204706 0.120471-0.451765 0-0.843294-0.120471-1.264941-0.120471H104.688941c-22.076235 0-27.166118-6.324706-27.166117-28.702117V317.409882c0-15.179294 1.807059-24.726588 19.877647-24.726588H271.36c20.871529 0 52.886588-8.673882 192.572235-112.188235a4400.790588 4400.790588 0 0 0 70.264471-53.278118v768.813177zM589.673412 11.504941a39.936 39.936 0 0 0-42.616471 4.818824c-0.602353 0.481882-59.663059 48.007529-124.928 96.617411-113.483294 84.600471-146.522353 98.695529-153.238588 100.894118H108.152471c-0.813176 0-1.596235 0.150588-2.409412 0.150588H33.129412C14.787765 213.985882 0 229.014588 0 247.506824v535.311058c0 18.522353 14.817882 33.520941 33.129412 33.520942h262.083764c6.625882 2.439529 37.767529 17.046588 138.480942 100.141176a4001.611294 4001.611294 0 0 1 111.676235 95.984941 40.056471 40.056471 0 0 0 43.309176 6.716235c14.486588-6.625882 23.792941-21.172706 23.792942-37.225411V48.278588c0-15.661176-8.854588-29.967059-22.799059-36.743529z" fill="#FF2F7D" p-id="13321"></path><path d="M946.356706 524.980706a282.112 282.112 0 0 0-138.541177-243.471059c-3.764706-2.017882-12.649412-5.903059-18.823529-5.903059-18.371765 0-33.28 15.058824-33.28 33.701647 0 12.468706 6.565647 23.612235 16.564706 29.424941a214.437647 214.437647 0 0 1 107.218823 186.24753 214.437647 214.437647 0 0 1-110.622117 188.235294c-9.577412 5.903059-15.932235 16.655059-15.932236 28.852706 0 18.612706 14.908235 33.701647 33.310118 33.701647 7.830588 0.060235 17.046588-4.608 17.046588-4.608a282.202353 282.202353 0 0 0 143.058824-246.181647" fill="#FF2F7D" p-id="13322"></path><path d="M896.933647 101.707294c-6.174118-3.764706-12.348235-6.806588-19.817412-6.806588-18.281412 0-33.129412 14.998588-33.129411 33.520941 0 13.342118 7.830588 24.094118 18.913882 30.177882a414.870588 414.870588 0 0 1 203.474823 357.948236c0 152.696471-81.739294 285.936941-203.233882 357.797647-10.661647 5.842824-19.847529 16.956235-19.847529 30.659764 0 18.522353 14.817882 33.551059 33.129411 33.551059 7.348706 0 13.221647-2.861176 19.576471-6.625882a481.490824 481.490824 0 0 0 236.122353-415.382588A481.490824 481.490824 0 0 0 896.903529 101.707294" fill="#FF2F7D" p-id="13323"></path></svg>