<?xml version="1.0" standalone="no"?><!DOCTYPE svg PUBLIC "-//W3C//DTD SVG 1.1//EN" "http://www.w3.org/Graphics/SVG/1.1/DTD/svg11.dtd"><svg t="1770039153903" class="icon" viewBox="0 0 1024 1024" version="1.1" xmlns="http://www.w3.org/2000/svg" p-id="1594" xmlns:xlink="http://www.w3.org/1999/xlink" width="200" height="200"><path d="M409.9072 247.7312L288 76.416c24.576-30.6176 57.4464-49.0496 98.6112-55.296 90.5216-13.7728 79.616 49.5104 217.8816-13.0304 45.9776-20.7872 108.4928-1.5104 187.52 57.8816l-136.576 200.6528C819.712 353.4336 960 568.32 960 739.5584 960 959.488 728.4992 1024 512 1024S64 959.488 64 739.5584C64 554.1376 228.5312 317.44 409.9072 247.7312z m-61.9776 199.424l107.52 197.9648h-71.1424v37.5552H476.16l0.5632 0.5632v47.2064h-92.416V768h92.416v85.3248h70.5536V768h92.9536v-37.5552h-92.928V683.264l0.5376-0.5632h92.416V645.12h-71.68l107.52-197.9648h-79.5392L512 618.3936l-84.5568-171.264H347.904z" fill="#FA4141" p-id="1595"></path></svg>