<?xml version="1.0" standalone="no"?><!DOCTYPE svg PUBLIC "-//W3C//DTD SVG 1.1//EN" "http://www.w3.org/Graphics/SVG/1.1/DTD/svg11.dtd"><svg t="1754088076624" class="icon" viewBox="0 0 1024 1024" version="1.1" xmlns="http://www.w3.org/2000/svg" p-id="1513" xmlns:xlink="http://www.w3.org/1999/xlink" width="200" height="200"><path d="M512 960a448 448 0 1 1 448-448 448 448 0 0 1-448 448z m0-838.08A390.08 390.08 0 1 0 902.08 512 390.72 390.72 0 0 0 512 121.92z" fill="#F5222D" p-id="1514"></path><path d="M612.16 683.52a29.12 29.12 0 0 1-20.48-49.28l128-128-128-124.8a29.12 29.12 0 0 1 40.64-41.28l148.16 145.28a28.48 28.48 0 0 1 0 40.96l-148.16 147.52a27.52 27.52 0 0 1-20.16 9.6z" fill="#FF0000" p-id="1515"></path><path d="M600 505.92m-35.84 0a35.84 35.84 0 1 0 71.68 0 35.84 35.84 0 1 0-71.68 0Z" fill="#FF0000" p-id="1516"></path><path d="M417.92 505.92m-35.84 0a35.84 35.84 0 1 0 71.68 0 35.84 35.84 0 1 0-71.68 0Z" fill="#FF0000" p-id="1517"></path><path d="M304.64 505.92m-35.84 0a35.84 35.84 0 1 0 71.68 0 35.84 35.84 0 1 0-71.68 0Z" fill="red" p-id="1518"></path></svg>