<?xml version="1.0" standalone="no"?><!DOCTYPE svg PUBLIC "-//W3C//DTD SVG 1.1//EN" "http://www.w3.org/Graphics/SVG/1.1/DTD/svg11.dtd"><svg t="1753157818185" class="icon" viewBox="0 0 1024 1024" version="1.1" xmlns="http://www.w3.org/2000/svg" p-id="17531" xmlns:xlink="http://www.w3.org/1999/xlink" width="200" height="200"><path d="M761.737 654.661c-28.851-21.378-59.866-38.732-92.449-51.895 18.491-11.671 35.822-25.476 51.663-41.316 55.812-55.813 86.55-130.02 86.55-208.95s-30.737-153.137-86.55-208.95C665.138 87.737 590.931 57 512 57s-153.137 30.737-208.95 86.55c-55.812 55.813-86.55 130.02-86.55 208.95s30.737 153.137 86.55 208.95c15.965 15.964 33.439 29.867 52.094 41.596 0.003 0.002 0.006 0.003 0.008 0.005-0.094 0.038-0.186 0.079-0.28 0.116l0.146 0c-44.473 18.02-85.873 43.708-122.259 76.344-76.33 68.464-124.826 162.017-136.555 263.427-1.967 17.008 10.226 32.39 27.233 34.356 1.21 0.14 2.411 0.208 3.6 0.208 15.527-0.001 28.929-11.645 30.756-27.441 9.987-86.357 51.312-166.05 116.363-224.396 65.545-58.791 150.183-91.169 238.322-91.169 77.133 0 150.561 24.198 212.345 69.979 13.757 10.194 33.17 7.305 43.364-6.451C778.381 684.268 775.493 664.854 761.737 654.661zM346.891 517.609C302.788 473.507 278.5 414.87 278.5 352.5s24.288-121.007 68.391-165.109S449.63 119 512 119s121.007 24.288 165.109 68.391S745.5 290.13 745.5 352.5s-24.288 121.007-68.391 165.109c-28.794 28.794-63.786 49.136-101.966 59.793-23.924 6.666-48.879 9.452-73.685 8.358-17.773-0.784-35.463-3.575-52.601-8.358-0.034-0.009-0.067-0.02-0.101-0.03l0 0C410.617 566.708 375.66 546.379 346.891 517.609zM958.833 817.083l-79.75 0 0-79.75c0-17.121-13.879-31-31-31s-31 13.879-31 31l0 79.75-79.75 0c-17.121 0-31 13.879-31 31s13.879 31 31 31l79.75 0 0 79.75c0 17.121 13.879 31 31 31s31-13.879 31-31l0-79.75 79.75 0c17.121 0 31-13.879 31-31S975.954 817.083 958.833 817.083z" fill="red" p-id="17532"></path></svg>