<?xml version="1.0" standalone="no"?><!DOCTYPE svg PUBLIC "-//W3C//DTD SVG 1.1//EN" "http://www.w3.org/Graphics/SVG/1.1/DTD/svg11.dtd"><svg t="1753163261424" class="icon" viewBox="0 0 1024 1024" version="1.1" xmlns="http://www.w3.org/2000/svg" p-id="37992" xmlns:xlink="http://www.w3.org/1999/xlink" width="200" height="200"><path d="M954.56 236.16l-88.96-132.608c-9.728-17.792-30.336-37.568-58.624-37.568H217.984c-32.384 0-53.376 29.696-57.792 36.48l-88.896 133.76a32 32 0 0 0-5.312 17.792V906.24c0 29.76 24.256 54.016 54.016 54.016h785.984a54.08 54.08 0 0 0 54.016-54.016V254.016a32 32 0 0 0-5.44-17.92zM213.76 137.728l0.256-0.448a35.392 35.392 0 0 1 6.656-7.232h585.088a19.2 19.2 0 0 1 3.776 4.48c0.64 1.472 1.024 1.92 1.92 3.328l78.016 116.16H136.448L213.76 137.728zM130.048 896.256v-576h765.888v576H130.048z m581.632-466.752l-259.584 259.52L313.6 550.464a32.192 32.192 0 1 0-45.568 45.568l161.344 161.28a32.192 32.192 0 0 0 45.568 0l282.304-282.24a32.192 32.192 0 0 0-45.504-45.568z" fill="red" p-id="37993"></path></svg>