<?xml version="1.0" standalone="no"?><!DOCTYPE svg PUBLIC "-//W3C//DTD SVG 1.1//EN" "http://www.w3.org/Graphics/SVG/1.1/DTD/svg11.dtd"><svg t="1758760313656" class="icon" viewBox="0 0 1024 1024" version="1.1" xmlns="http://www.w3.org/2000/svg" p-id="13116" xmlns:xlink="http://www.w3.org/1999/xlink" width="200" height="200"><path d="M164 451.2l360-208A24 24 0 0 1 560 264v152l300-173.2A24 24 0 0 1 896 264v416a24 24 0 0 1-36 20.8L560 527.44V680a24 24 0 0 1-36 20.8l-360-208a24 24 0 0 1 0-41.6zM120 224a24 24 0 0 1 24 24v440a24 24 0 0 1-48 0V248a24 24 0 0 1 24-24z" p-id="13117" fill="#fe0a39"></path></svg>